<?xml version="1.0" encoding="iso-8859-1"?>
<!-- Generator: Adobe Illustrator 19.0.0, SVG Export Plug-In . SVG Version: 6.00 Build 0)  -->
<svg version="1.1" id="Layer_1" xmlns="http://www.w3.org/2000/svg" xmlns:xlink="http://www.w3.org/1999/xlink" x="0px" y="0px"
	 viewBox="0 0 355 355" style="enable-background:new 0 0 355 355;" xml:space="preserve">
<g>
	<rect x="26.199" y="59.211" style="fill:#FFDA79;" width="302.602" height="213.24"/>
	<g>
		<path style="fill:#13829B;" d="M166.751,121.649l-53.893,88.497L66.137,190.63c-3.819-1.596-8.215,0.207-9.811,4.03
			c-1.597,3.822,0.208,8.214,4.03,9.811l52.666,22c3.41,1.426,7.365,0.152,9.296-3.02l52.271-85.835l58.009,58.228
			c3.299,3.31,8.802,2.83,11.473-1.015l34.711-49.969l4.627,3.11c2.627,1.766,6.18,0.026,6.396-3.132l1.936-28.329
			c0.216-3.158-3.068-5.365-5.91-3.973l-25.502,12.487c-2.843,1.392-3.112,5.339-0.486,7.105l6.489,4.362l-29.452,42.398
			l-58.412-58.632C175.029,116.804,169.273,117.508,166.751,121.649z"/>
		<path style="fill:#13829B;" d="M347.5,51.711c-7.674,0-156.592,0-162.5,0V32.229c0-4.142-3.358-7.5-7.5-7.5
			c-4.142,0-7.5,3.358-7.5,7.5v19.482c-6.044,0-154.897,0-162.5,0c-4.142,0-7.5,3.358-7.5,7.5s3.358,7.5,7.5,7.5h11.199v205.74
			c0,4.142,3.358,7.5,7.5,7.5h88.403l-35.906,37.643c-2.859,2.998-2.747,7.745,0.25,10.604c2.998,2.859,7.746,2.746,10.604-0.251
			l21.783-22.837h132.334l21.783,22.837c2.861,2.998,7.607,3.108,10.604,0.251c2.997-2.859,3.109-7.606,0.251-10.604l-35.906-37.643
			h88.403c4.142,0,7.5-3.358,7.5-7.5V66.711H347.5c4.142,0,7.5-3.358,7.5-7.5S351.642,51.711,347.5,51.711z M229.359,290.111
			H125.641l9.691-10.16h84.336L229.359,290.111z M321.301,264.951H33.699V66.711h287.603V264.951z"/>
	</g>
</g>
<g>
</g>
<g>
</g>
<g>
</g>
<g>
</g>
<g>
</g>
<g>
</g>
<g>
</g>
<g>
</g>
<g>
</g>
<g>
</g>
<g>
</g>
<g>
</g>
<g>
</g>
<g>
</g>
<g>
</g>
</svg>
