<?xml version="1.0" encoding="iso-8859-1"?>
<!-- Generator: Adobe Illustrator 19.0.0, SVG Export Plug-In . SVG Version: 6.00 Build 0)  -->
<svg version="1.1" id="Layer_1" xmlns="http://www.w3.org/2000/svg" xmlns:xlink="http://www.w3.org/1999/xlink" x="0px" y="0px"
	 viewBox="0 0 512 512" style="enable-background:new 0 0 512 512;" xml:space="preserve">
<path style="fill:#66BF00;" d="M229.966,156.203H117.153V8.678c0-4.792-3.886-8.678-8.678-8.678H82.441L30.373,52.068v182.237
	c0,4.792,3.886,8.678,8.678,8.678h190.915c4.792,0,8.678-3.886,8.678-8.678v-69.424
	C238.644,160.089,234.759,156.203,229.966,156.203z"/>
<path style="fill:#DDDAC5;" d="M82.441,43.39V0L30.373,52.068h43.39C78.555,52.068,82.441,48.182,82.441,43.39z"/>
<path style="fill:#66BF00;" d="M91.119,512h86.78l58.05-232.201c1.369-5.477-2.774-10.782-8.419-10.782h-68.89
	c-3.982,0-7.453,2.71-8.419,6.574L91.119,512z"/>
<path style="fill:#DDDAC5;" d="M177.898,512h-86.78l-58.05-232.201c-1.369-5.477,2.774-10.782,8.419-10.782h68.89
	c3.982,0,7.453,2.71,8.419,6.574L177.898,512z"/>
<path style="fill:#66BF00;" d="M438.237,338.441c4.792,0,8.678-3.886,8.678-8.678v-52.068c0-4.792-3.886-8.678-8.678-8.678H282.034
	c-4.792,0-8.678,3.886-8.678,8.678v182.237L325.424,512h112.814c4.792,0,8.678-3.886,8.678-8.678v-52.068
	c0-4.792-3.886-8.678-8.678-8.678h-78.102V425.22h43.39c4.792,0,8.678-3.886,8.678-8.678v-52.068c0-4.792-3.886-8.678-8.678-8.678
	h-43.39v-17.356H438.237z"/>
<path style="fill:#DDDAC5;" d="M325.424,468.61c0-4.792-3.886-8.678-8.678-8.678h-43.39L325.424,512V468.61z"/>
<path style="fill:#72CCC5;" d="M360.136,0c-66.991,0-121.492,54.501-121.492,121.492s54.501,121.492,121.492,121.492
	s121.492-54.501,121.492-121.492S427.126,0,360.136,0z"/>
<path style="fill:#11BBA3;" d="M394.847,208.271c-66.991,0-121.492-54.501-121.492-121.492c0-24.637,7.378-47.579,20.032-66.748
	c-32.953,21.751-54.744,59.106-54.744,101.46c0,66.991,54.501,121.492,121.492,121.492c42.354,0,79.708-21.79,101.46-54.744
	C442.427,200.893,419.484,208.271,394.847,208.271z"/>
<g>
	<path style="fill:#66BF00;" d="M444.121,37.269c-0.065-2.382-1.106-4.633-2.879-6.224C418.931,11.025,390.127,0,360.136,0
		c-25.488,0-49.89,7.81-70.566,22.587c-3.681,2.631-4.723,7.646-2.395,11.525l13.452,22.421c1.065,1.777,2.732,3.112,4.697,3.768
		l21.917,7.305l7.306,21.918c0.611,1.831,1.813,3.406,3.419,4.476l24.116,16.077l16.325,32.652c1.633,3.264,5.245,5.187,8.862,4.725
		c3.508-0.448,6.46-3.07,7.318-6.502l8.678-34.712c0.174-0.688,0.26-1.395,0.26-2.104v-22.44l38.057-38.056
		C443.267,41.955,444.185,39.651,444.121,37.269z"/>
	<path style="fill:#66BF00;" d="M478.912,95.875c-0.997-4.638-5.531-7.617-10.188-6.687l-32.19,6.439
		c-3.435,0.688-6.12,3.372-6.807,6.807l-8.678,43.39c-0.451,2.257,0.013,4.6,1.289,6.516l17.356,26.034
		c0.089,0.133,0.182,0.265,0.278,0.393l7.463,9.95c1.642,2.19,4.216,3.471,6.941,3.471c0.088,0,0.176-0.001,0.264-0.004
		c2.824-0.085,5.428-1.539,6.983-3.896c13.087-19.848,20.005-42.945,20.005-66.795C481.627,112.886,480.714,104.269,478.912,95.875z
		"/>
	<path style="fill:#66BF00;" d="M340.238,132.711c-1.212-1.211-2.754-2.037-4.434-2.373l-40.139-8.027l-24.044-32.06
		c-2.354-3.14-6.52-4.309-10.165-2.851l-15.625,6.25c-2.787,1.114-4.8,3.59-5.323,6.545c-1.237,6.991-1.864,14.157-1.864,21.296
		c0,23.294,6.614,45.929,19.125,65.458c12.176,19.005,29.335,34.225,49.623,44.017c1.2,0.578,2.488,0.862,3.772,0.862
		c1.934,0,3.853-0.646,5.423-1.902l40.294-32.235c1.306-1.046,2.282-2.445,2.812-4.032l8.678-26.034
		c1.039-3.119,0.228-6.557-2.097-8.882L340.238,132.711z"/>
</g>
<path style="fill:#58AB23;" d="M273.505,92.763l-1.884-2.512c-2.354-3.14-6.52-4.309-10.165-2.851l-15.625,6.25
	c-2.787,1.114-4.8,3.59-5.323,6.545c-1.237,6.991-1.864,14.157-1.864,21.296c0,23.294,6.614,45.929,19.125,65.458
	c12.176,19.005,29.335,34.225,49.623,44.017c2.979,1.436,6.612,1.026,9.193-1.039l36.375-29.1
	C308.327,184.382,275.926,142.443,273.505,92.763z"/>
<g>
</g>
<g>
</g>
<g>
</g>
<g>
</g>
<g>
</g>
<g>
</g>
<g>
</g>
<g>
</g>
<g>
</g>
<g>
</g>
<g>
</g>
<g>
</g>
<g>
</g>
<g>
</g>
<g>
</g>
</svg>
