<?xml version="1.0" encoding="UTF-8" standalone="no"?>
<svg version="1.1" xmlns="http://www.w3.org/2000/svg" viewBox="-5 -5 1747 2498">
	<defs>
		<pattern id="Heart" x="0" y="0" width="146" height="144" viewBox="0 0 584 576" patternUnits="userSpaceOnUse">
			<path fill="black" stroke="red" stroke-width="17" d="m417.221 3.47c-56.509 0.0527-105.7 35.891-139.78 77.469-13.191 16.094-39.574 48.283-39.574 48.283-0.22075-6.9693-0.65655-14.571-2-19.363-13.99-49.92-67-86.04-118.69-82.8-38.484 2.4-79.87 19.95-101.08 53.2-23.894 37.46-10.563 85.62 7.609 123.02 34.091 70.179 96.408 119.46 142.6 180.72 28.401 37.662 37.761 84.718 52.678 128.44-0.82385 12.896 10.965 13.298 6.5 2.0703-1.5325-21.48 6.0708-42.802 12.807-63.047 15.416-46.332 44.051-87.495 81.812-118.5 53.661-44.058 121.05-69.379 168.51-121.26 36.683-40.108 57.984-103.94 27.879-152.12-22.572-36.125-63.911-56.144-99.268-56.111z"/>
		</pattern>
	</defs>

	<g id="Sum">
		<title>I Love Summation, by Adam Stanislav</title>
		<desc>The summation sign (∑, a typographical variation of the Greek letter capital Sigma, Σ) filled with hand-drawn hearts.</desc>

		<path fill="url(#Heart)" d="m47.78 2.17v95.111l754.09 1185.5-798.25 1107.4v95.11h1593.1l135.87-631.81-101.9-27.174c-112.07 281.9-196.99 343.1-441.56 343.1h-822.03l767.68-1066.6-621.62-968.09h512.92c234.38 0 319.3 33.968 373.65 122.29 50.952 78.127 91.714 163.05 132.48 305.71l98.51-13.594c-20.39-230.99-37.37-489.14-40.77-546.89h-1542.2z"/>
	</g>
</svg>
