<?xml version="1.0" encoding="iso-8859-1"?>
<!-- Generator: Adobe Illustrator 19.0.0, SVG Export Plug-In . SVG Version: 6.00 Build 0)  -->
<svg version="1.1" id="Layer_1" xmlns="http://www.w3.org/2000/svg" xmlns:xlink="http://www.w3.org/1999/xlink" x="0px" y="0px"
	 viewBox="0 0 512 512" style="enable-background:new 0 0 512 512;" xml:space="preserve">
<polyline style="fill:#FCD577;" points="388.412,152.281 450.098,152.281 470.027,152.281 470.027,8.497 42.211,8.497 
	42.211,152.281 62.141,152.281 123.826,152.281 "/>
<polyline style="fill:#CFDCE5;" points="388.412,152.281 450.098,152.281 450.098,502.819 62.141,502.819 62.141,152.281 
	123.826,152.281 "/>
<polyline style="fill:#BAC6CC;" points="388.412,152.281 450.098,152.281 450.098,180.385 62.141,180.385 62.141,152.281 
	123.826,152.281 "/>
<g>
	<path style="fill:#4EBFED;" d="M142.684,111.032L142.684,111.032c-10.415,0-18.857,8.442-18.857,18.857v37.714
		c0,10.415,8.442,18.857,18.857,18.857l0,0c10.415,0,18.857-8.442,18.857-18.857v-37.714
		C161.541,119.475,153.098,111.032,142.684,111.032z"/>
	<path style="fill:#4EBFED;" d="M369.554,111.032L369.554,111.032c-10.415,0-18.857,8.442-18.857,18.857v37.714
		c0,10.415,8.442,18.857,18.857,18.857l0,0c10.415,0,18.857-8.442,18.857-18.857v-37.714
		C388.411,119.475,379.969,111.032,369.554,111.032z"/>
</g>
<path d="M469.908,0h-80.142c-4.883,0-8.839,3.958-8.839,8.839s3.956,8.839,8.839,8.839h71.303v126.105h-11.09h-52.848V130.23
	c0-15.272-12.424-27.696-27.696-27.696s-27.696,12.424-27.696,27.696v13.553H170.261V130.23c0-15.272-12.424-27.696-27.696-27.696
	s-27.696,12.424-27.696,27.696v13.553H62.021h-11.09V17.678h309.371c4.883,0,8.839-3.958,8.839-8.839S365.185,0,360.302,0H42.092
	c-4.883,0-8.839,3.958-8.839,8.839v143.784c0,4.882,3.956,8.839,8.839,8.839h11.09v54.803c0,4.882,3.956,8.839,8.839,8.839
	s8.839-3.958,8.839-8.839v-54.803h44.008v6.482c0,15.272,12.424,27.696,27.696,27.696s27.696-12.424,27.696-27.696v-6.482h171.478
	v6.482c0,15.272,12.424,27.696,27.696,27.696s27.696-12.424,27.696-27.696v-6.482h44.008v332.859H70.861V245.729
	c0-4.882-3.956-8.839-8.839-8.839s-8.839,3.958-8.839,8.839v257.432c0,4.882,3.956,8.839,8.839,8.839h387.957
	c4.883,0,8.839-3.958,8.839-8.839V161.462h11.09c4.883,0,8.839-3.958,8.839-8.839V8.839C478.747,3.958,474.791,0,469.908,0z
	 M142.565,177.962c-5.524,0-10.018-4.494-10.018-10.018V130.23c0-5.524,4.494-10.018,10.018-10.018
	c5.524,0,10.018,4.494,10.018,10.018v37.714C152.583,173.468,148.088,177.962,142.565,177.962z M379.453,167.944
	c0,5.524-4.494,10.018-10.018,10.018s-10.018-4.494-10.018-10.018V130.23c0-5.524,4.494-10.018,10.018-10.018
	s10.018,4.494,10.018,10.018V167.944z"/>
<path d="M166.739,370.302l-14.834,6.467c-11.334,4.94-18.658,16.123-18.658,28.487v11.364c0,4.882,3.956,8.839,8.839,8.839h91.927
	c4.883,0,8.839-3.958,8.839-8.839c0-4.882-3.956-8.839-8.839-8.839h-83.088v-2.524c0-5.331,3.157-10.151,8.044-12.281l14.834-6.467
	c41.946-18.284,69.049-59.666,69.049-105.423c0-30.218-24.583-54.803-54.803-54.803s-54.803,24.585-54.803,54.803
	c0,4.882,3.956,8.839,8.839,8.839c4.883,0,8.839-3.958,8.839-8.839c0-20.47,16.654-37.125,37.125-37.125
	s37.125,16.654,37.125,37.125C225.174,319.809,202.237,354.829,166.739,370.302z"/>
<path d="M282.46,276.961c4.883,0,8.839-3.958,8.839-8.839v-21.735h74.528c4.883,0,8.839-3.958,8.839-8.839s-3.956-8.839-8.839-8.839
	H282.46c-4.883,0-8.839,3.958-8.839,8.839v30.574C273.621,273.003,277.578,276.961,282.46,276.961z"/>
<path d="M288.711,395.364c-3.453-3.452-9.049-3.452-12.501,0s-3.452,9.048,0,12.5c11.712,11.712,27.091,17.566,42.476,17.566
	c15.38,0,30.765-5.856,42.475-17.566c11.345-11.345,17.593-26.43,17.593-42.475c0-16.045-6.249-31.129-17.593-42.475
	c-18.873-18.872-47.284-22.54-69.861-10.994v-14.335c0-4.882-3.956-8.839-8.839-8.839s-8.839,3.958-8.839,8.839v31.579
	c0,3.575,2.153,6.798,5.457,8.166c3.302,1.368,7.104,0.612,9.634-1.916c16.527-16.527,43.422-16.528,59.948,0
	c8.007,8.007,12.416,18.652,12.416,29.975c0,11.324-4.409,21.968-12.416,29.975C332.134,411.891,305.239,411.893,288.711,395.364z"
	/>
<g>
</g>
<g>
</g>
<g>
</g>
<g>
</g>
<g>
</g>
<g>
</g>
<g>
</g>
<g>
</g>
<g>
</g>
<g>
</g>
<g>
</g>
<g>
</g>
<g>
</g>
<g>
</g>
<g>
</g>
</svg>
